<svg xmlns="http://www.w3.org/2000/svg" width="1024" height="1024" viewBox="0 0 1024 1024"><path fill="#fff" d="M1023.229 348.352c-.234-1.241-.441-2.482-.772-3.696-.207-.731-.455-1.42-.689-2.137-.345-1.076-.703-2.151-1.131-3.199-.303-.731-.648-1.434-.979-2.137-.469-.993-.951-1.972-1.503-2.923-.386-.703-.827-1.365-1.255-2.041a44 44 0 0 0-3.365-4.564c-.689-.827-1.434-1.613-2.179-2.386-.579-.579-1.158-1.158-1.765-1.724-.8-.731-1.627-1.42-2.496-2.082-.662-.51-1.31-1.034-2-1.503-.248-.179-.469-.386-.731-.552L536.395 7.401a43.955 43.955 0 0 0-48.802 0L19.596 319.394c-.262.165-.469.372-.731.552-.689.483-1.338.993-2 1.503a63 63 0 0 0-2.496 2.068 34 34 0 0 0-1.751 1.724 40 40 0 0 0-2.193 2.386 27 27 0 0 0-1.503 1.931 40 40 0 0 0-1.862 2.675c-.427.676-.855 1.338-1.255 2.041-.552.951-1.034 1.931-1.489 2.896-.331.703-.689 1.42-.979 2.137a45 45 0 0 0-1.145 3.199c-.234.717-.483 1.42-.676 2.068-.317 1.213-.552 2.441-.772 3.696-.124.634-.276 1.255-.359 1.903a44 44 0 0 0-.386 5.75v312.062c0 1.931.138 3.861.414 5.75.097.689.276 1.241.414 1.903.221 1.241.414 2.482.827 3.723.193.689.414 1.379.689 2.137.345 1.103.689 2.206 1.103 3.213.29.689.689 1.379.965 2.068.455.965.965 1.931 1.517 2.937a35 35 0 0 0 1.241 2.013c.593.965 1.241 1.793 1.931 2.62.483.689.965 1.241 1.517 1.903.703.827 1.379 1.655 2.206 2.386.565.552 1.103 1.241 1.793 1.655.8.689 1.655 1.379 2.482 2.096.662.552 1.379.965 1.931 1.503.262.138.414.414.689.538l467.873 312.159c7.391 4.964 15.858 7.446 24.408 7.405s17.017-2.482 24.408-7.405l467.997-311.993c.262-.165.483-.359.731-.538.689-.483 1.338-.993 2-1.503a53 53 0 0 0 2.496-2.096c.607-.538 1.186-1.131 1.765-1.71a40 40 0 0 0 2.179-2.386 34 34 0 0 0 1.503-1.903 44 44 0 0 0 1.862-2.675c.427-.662.855-1.338 1.255-2.013a42 42 0 0 0 1.503-2.937c.331-.703.676-1.407.979-2.124.427-1.062.786-2.137 1.131-3.213.234-.717.483-1.42.689-2.137.317-1.213.538-2.455.772-3.696.11-.634.276-1.255.345-1.903.248-1.903.386-3.806.386-5.75V356.005c0-1.944-.152-3.847-.386-5.75-.11-.676-.317-1.227-.455-1.903ZM511.987 616.094 356.37 512.009 511.987 407.91l155.631 104.099Zm-43.989-284.621L277.23 459.07 123.24 356.06l344.758-229.834ZM198.091 511.995l-110.07 73.624V438.372Zm79.139 52.98 190.768 127.583v205.247L123.24 667.943l153.99-102.996ZM555.99 692.53l190.768-127.583 154.004 102.996L555.99 897.777Zm269.907-180.508 110.084-73.637v147.261l-110.084-73.651Zm-79.139-52.952L555.99 331.487V126.226L900.762 356.06Z"/></svg>