<svg xmlns="http://www.w3.org/2000/svg" width="1024" height="1024" viewBox="0 0 1024 1024"><path fill="#fff" d="M113.778 1024h796.444C973.06 1024 1024 973.06 1024 910.222V113.778C1024 50.94 973.06 0 910.222 0H113.778C50.94 0 0 50.94 0 113.778v796.444C0 973.06 50.94 1024 113.778 1024"/><path fill="#303030" d="M881.778 881.778H729.822V622.964c0-70.96-26.963-110.615-83.128-110.615-61.1 0-93.022 41.267-93.022 110.615v258.814H407.229V388.741h146.443v66.412s44.031-81.475 148.657-81.475c104.578 0 179.448 63.861 179.448 195.94ZM232.524 324.182c49.881 0 90.278-40.738 90.278-90.98s-40.396-90.98-90.278-90.98c-49.881 0-90.302 40.738-90.302 90.98s40.42 90.98 90.302 90.98m-75.617 64.559h152.702v493.037H156.907Z"/></svg>